# xmcd
#
# Track frame offsets:
#  150
#  16451
#  29572
#  51691
#  68172
#  79377
#  99813
#  115654
#  129553
#  145174
#  161299
#  181895
#  193270
#  212063
#  232753
#  251002
#  268753
#  290315
#  307333
#
# Disc length: 4296 seconds
#
# Revision: 0
# Processed by: cddbd v1.5.1PL2 Copyright (c) Steve Scherf et al.
# Submitted via: Collectorz.com_Music_Collector 6.11
#
DISCID=1710c613
DTITLE=Various Artist - Super Greece Hits 2000
DYEAR=2000
DGENRE=Country
TTITLE0=Antique - Opa, Opa
TTITLE1=Zig - Zag - Evithos Pu Ksehasa Na Megaloso
TTITLE2=Dalaras - An Se Telo
TTITLE3=Trandafilos - Spao Ta Roloja
TTITLE4=Stela Georgiadou - Tora Mu Milaei
TTITLE5=Visi - Trauma
TTITLE6=Protopsalti - Paradethika
TTITLE7=Gabri - Ne Iparho Ego
TTITLE8=Konitopolu - Limanaki
TTITLE9=Dalaras - Da Me Niazi
TTITLE10=Visi - Se Thelo, Me Thelis
TTITLE11=Antipas - Ja Ta Lefta
TTITLE12=Dalaras - Ena Tragudi
TTITLE13=Hristos Epiadis - Epimeno
TTITLE14=Arvantiki - Dinata, Dinata
TTITLE15=Samiu - Ena, Ena
TTITLE16=Protopsalti - Theos An Ine
TTITLE17=Dalaras - I Kardia Mu Theli Na Petaksi
TTITLE18=Antique - Dinata, Dinata
EXTD=
EXTT0=
EXTT1=
EXTT2=
EXTT3=
EXTT4=
EXTT5=
EXTT6=
EXTT7=
EXTT8=
EXTT9=
EXTT10=
EXTT11=
EXTT12=
EXTT13=
EXTT14=
EXTT15=
EXTT16=
EXTT17=
EXTT18=
PLAYORDER=
